<?xml version="1.0" encoding="UTF-8" standalone="no"?>
<svg
   width="32"
   height="32"
   viewBox="0 0 32 32"
   fill="none"
   version="1.1"
   id="svg2"
   sodipodi:docname="arrow-right.svg"
   inkscape:version="1.4 (86a8ad7, 2024-10-11)"
   xmlns:inkscape="http://www.inkscape.org/namespaces/inkscape"
   xmlns:sodipodi="http://sodipodi.sourceforge.net/DTD/sodipodi-0.dtd"
   xmlns="http://www.w3.org/2000/svg"
   xmlns:svg="http://www.w3.org/2000/svg">
  <defs
     id="defs2" />
  <sodipodi:namedview
     id="namedview2"
     pagecolor="#ffffff"
     bordercolor="#000000"
     borderopacity="0.25"
     inkscape:showpageshadow="2"
     inkscape:pageopacity="0.0"
     inkscape:pagecheckerboard="0"
     inkscape:deskcolor="#d1d1d1"
     showgrid="false"
     inkscape:zoom="26.03125"
     inkscape:cx="15.980792"
     inkscape:cy="16"
     inkscape:window-width="1841"
     inkscape:window-height="1051"
     inkscape:window-x="-9"
     inkscape:window-y="-9"
     inkscape:window-maximized="1"
     inkscape:current-layer="svg2" />
  <path
     style="fill:#fafafa;stroke-linecap:round;stroke-linejoin:round"
     d="m 5.3339844,15 a 1,1 0 0 0 -1,1 1,1 0 0 0 1,1 H 26.666016 a 1,1 0 0 0 1,-1 1,1 0 0 0 -1,-1 z"
     id="path1" />
  <path
     style="fill:#fafafa;stroke-linecap:round;stroke-linejoin:round"
     d="m 17.958984,7.2929687 a 1,1 0 0 0 0,1.4140626 L 25.251953,16 17.958984,23.292969 a 1,1 0 0 0 0,1.414062 1,1 0 0 0 1.414063,0 l 8,-8 a 1.0001,1.0001 0 0 0 0,-1.414062 l -8,-8.0000003 a 1,1 0 0 0 -1.414063,0 z"
     id="path2" />
</svg>
