<?xml version="1.0" encoding="UTF-8" standalone="no"?>
<svg
   width="24"
   height="24"
   viewBox="0 0 24 24"
   fill="none"
   version="1.1"
   id="svg3"
   sodipodi:docname="brush.svg"
   inkscape:version="1.4 (86a8ad7, 2024-10-11)"
   xmlns:inkscape="http://www.inkscape.org/namespaces/inkscape"
   xmlns:sodipodi="http://sodipodi.sourceforge.net/DTD/sodipodi-0.dtd"
   xmlns="http://www.w3.org/2000/svg"
   xmlns:svg="http://www.w3.org/2000/svg">
  <defs
     id="defs3" />
  <sodipodi:namedview
     id="namedview3"
     pagecolor="#ffffff"
     bordercolor="#000000"
     borderopacity="0.25"
     inkscape:showpageshadow="2"
     inkscape:pageopacity="0.0"
     inkscape:pagecheckerboard="0"
     inkscape:deskcolor="#d1d1d1"
     showgrid="false"
     inkscape:zoom="34.708333"
     inkscape:cx="12.014406"
     inkscape:cy="12"
     inkscape:window-width="1841"
     inkscape:window-height="1051"
     inkscape:window-x="-9"
     inkscape:window-y="-9"
     inkscape:window-maximized="1"
     inkscape:current-layer="svg3" />
  <path
     style="fill:#fafafa;stroke-linecap:round;stroke-linejoin:round"
     d="m 9,10.222656 a 1,1 0 0 0 -0.7070312,0.292969 1,1 0 0 0 0,1.414063 l 3.7773442,3.777343 a 1,1 0 0 0 1.414062,0 1,1 0 0 0 0,-1.414062 L 9.7070313,10.515625 A 1,1 0 0 0 9,10.222656 Z"
     id="path1" />
  <path
     style="fill:#fafafa;stroke-linecap:round;stroke-linejoin:round"
     d="m 5.5,14.005859 c -1.1537378,0 -2.3071447,0.43803 -3.1816406,1.3125 -1.0261134,1.026166 -0.9772866,2.398704 -0.9335938,3.496094 0.043693,1.09739 0.074392,2.046079 -0.2753906,2.728516 A 1.0001,1.0001 0 0 0 2,23 c 0.94305,0 2.1227876,0.0902 3.3046875,-0.0039 1.1818999,-0.09411 2.4391998,-0.376728 3.3769531,-1.314453 1.7489374,-1.749028 1.7489374,-4.614254 0,-6.363282 C 7.8071447,14.443889 6.6537378,14.005859 5.5,14.005859 Z m 0,1.988282 c 0.6377172,0 1.275234,0.245951 1.7675781,0.738281 0.9847225,0.984773 0.9847225,2.550383 0,3.535156 -0.4290867,0.429074 -1.1592317,0.659586 -2.1230469,0.736328 -0.5734997,0.04566 -1.2318294,0.01347 -1.8710937,-0.002 0.1236318,-0.816839 0.1356425,-1.60589 0.109375,-2.265625 -0.04174,-1.048335 0.00889,-1.663172 0.3496094,-2.003906 C 4.224766,16.240092 4.8622828,15.994141 5.5,15.994141 Z"
     id="path2" />
  <path
     style="fill:#fafafa;stroke-linecap:round;stroke-linejoin:round"
     d="M 19.501953,1.3613281 C 18.69942,1.3458974 17.891557,1.6256741 17.263672,2.2070313 L 7.3964844,11.34375 c -0.50994,0.4722 -0.8316709,0.73845 -1.0957032,1.185547 -0.5341792,0.904355 -0.5555749,2.026903 -0.056641,2.951172 0.2466638,0.456857 0.5574034,0.735157 1.0488281,1.226562 0.4914124,0.491403 0.7696452,0.802177 1.2265626,1.048828 0.9241978,0.498931 2.0467417,0.47751 2.9511717,-0.05664 0.447248,-0.264121 0.713417,-0.585879 1.185547,-1.095703 L 21.792969,6.7363281 C 22.955724,5.4805724 22.917152,3.5030753 21.707031,2.2929688 21.102003,1.687868 20.304486,1.3767589 19.501953,1.3613281 Z m -0.03711,1.9882813 c 0.299042,0.00575 0.595653,0.1249226 0.828125,0.3574219 0.465079,0.4650734 0.478094,1.1873375 0.03125,1.6699218 L 11.1875,15.246094 c -0.47227,0.509975 -0.678023,0.69719 -0.734375,0.730469 -0.30317,0.17905 -0.6745329,0.1868 -0.984375,0.01953 C 9.4110473,15.964945 9.1984389,15.784366 8.7070313,15.292969 8.215616,14.801574 8.0350825,14.588993 8.0039063,14.53125 7.8366006,14.221319 7.8444367,13.84992 8.0234375,13.546875 8.0568052,13.490372 8.2439663,13.2847 8.7539063,12.8125 L 18.623047,3.6757813 c 0.241315,-0.2234329 0.542755,-0.3319187 0.841797,-0.3261719 z"
     id="path3" />
</svg>
