<?xml version="1.0" encoding="UTF-8" standalone="no"?>
<svg
   width="28"
   height="28"
   viewBox="0 0 28 28"
   fill="none"
   version="1.1"
   id="svg1"
   sodipodi:docname="burger-menu.svg"
   inkscape:version="1.4 (86a8ad7, 2024-10-11)"
   xmlns:inkscape="http://www.inkscape.org/namespaces/inkscape"
   xmlns:sodipodi="http://sodipodi.sourceforge.net/DTD/sodipodi-0.dtd"
   xmlns="http://www.w3.org/2000/svg"
   xmlns:svg="http://www.w3.org/2000/svg">
  <defs
     id="defs1" />
  <sodipodi:namedview
     id="namedview1"
     pagecolor="#ffffff"
     bordercolor="#000000"
     borderopacity="0.25"
     inkscape:showpageshadow="2"
     inkscape:pageopacity="0.0"
     inkscape:pagecheckerboard="0"
     inkscape:deskcolor="#d1d1d1"
     showgrid="false"
     inkscape:zoom="29.75"
     inkscape:cx="14.016807"
     inkscape:cy="14"
     inkscape:window-width="1841"
     inkscape:window-height="1051"
     inkscape:window-x="-9"
     inkscape:window-y="-9"
     inkscape:window-maximized="1"
     inkscape:current-layer="svg1" />
  <path
     style="fill:#fafafa;stroke-linecap:round;stroke-linejoin:round"
     d="m 3.5,8.9160156 a 1,1 0 0 0 -1,1 1,1 0 0 0 1,1.0000004 h 21 a 1,1 0 0 0 1,-1.0000004 1,1 0 0 0 -1,-1 z m 0,8.1679684 a 1,1 0 0 0 -1,1 1,1 0 0 0 1,1 h 21 a 1,1 0 0 0 1,-1 1,1 0 0 0 -1,-1 z"
     id="path1" />
</svg>
