<?xml version="1.0" encoding="UTF-8" standalone="no"?>
<svg
   width="28"
   height="28"
   viewBox="0 0 28 28"
   fill="none"
   version="1.1"
   id="svg2"
   sodipodi:docname="close-x.svg"
   inkscape:version="1.4 (86a8ad7, 2024-10-11)"
   xmlns:inkscape="http://www.inkscape.org/namespaces/inkscape"
   xmlns:sodipodi="http://sodipodi.sourceforge.net/DTD/sodipodi-0.dtd"
   xmlns="http://www.w3.org/2000/svg"
   xmlns:svg="http://www.w3.org/2000/svg">
  <defs
     id="defs2" />
  <sodipodi:namedview
     id="namedview2"
     pagecolor="#ffffff"
     bordercolor="#000000"
     borderopacity="0.25"
     inkscape:showpageshadow="2"
     inkscape:pageopacity="0.0"
     inkscape:pagecheckerboard="0"
     inkscape:deskcolor="#d1d1d1"
     showgrid="false"
     inkscape:zoom="29.75"
     inkscape:cx="14.016807"
     inkscape:cy="14.016807"
     inkscape:window-width="1806"
     inkscape:window-height="1052"
     inkscape:window-x="-8"
     inkscape:window-y="-8"
     inkscape:window-maximized="1"
     inkscape:current-layer="svg2" />
  <path
     style="fill:#fafafa;stroke-linecap:round;stroke-linejoin:round"
     d="M 20.292969,6.2929687 6.2929687,20.292969 c -0.3904233,0.390507 -0.3904233,1.023555 0,1.414062 0.390507,0.390424 1.0235555,0.390424 1.4140625,0 L 21.707031,7.7070312 c 0.390424,-0.390507 0.390424,-1.0235555 0,-1.4140625 -0.390507,-0.3904233 -1.023555,-0.3904233 -1.414062,0 z"
     id="path1"
     sodipodi:nodetypes="ccccccc" />
  <path
     style="fill:#fafafa;stroke-linecap:round;stroke-linejoin:round"
     d="M 7.7070312,6.2929687 21.707032,20.292969 c 0.390423,0.390507 0.390423,1.023555 0,1.414062 -0.390507,0.390424 -1.023556,0.390424 -1.414063,0 L 6.2929692,7.7070312 c -0.390424,-0.390507 -0.390424,-1.0235555 0,-1.4140625 0.390507,-0.3904233 1.023555,-0.3904233 1.414062,0 z"
     id="path2"
     sodipodi:nodetypes="ccccccc" />
</svg>
