<?xml version="1.0" encoding="UTF-8" standalone="no"?>
<svg
   width="24"
   height="24"
   viewBox="0 0 24 24"
   fill="none"
   version="1.1"
   id="svg1"
   sodipodi:docname="hourglass.svg"
   inkscape:version="1.4 (86a8ad7, 2024-10-11)"
   xmlns:inkscape="http://www.inkscape.org/namespaces/inkscape"
   xmlns:sodipodi="http://sodipodi.sourceforge.net/DTD/sodipodi-0.dtd"
   xmlns="http://www.w3.org/2000/svg"
   xmlns:svg="http://www.w3.org/2000/svg">
  <defs
     id="defs1" />
  <sodipodi:namedview
     id="namedview1"
     pagecolor="#ffffff"
     bordercolor="#000000"
     borderopacity="0.25"
     inkscape:showpageshadow="2"
     inkscape:pageopacity="0.0"
     inkscape:pagecheckerboard="0"
     inkscape:deskcolor="#d1d1d1"
     showgrid="false"
     inkscape:zoom="34.708333"
     inkscape:cx="12.014406"
     inkscape:cy="12"
     inkscape:window-width="1841"
     inkscape:window-height="1051"
     inkscape:window-x="-9"
     inkscape:window-y="-9"
     inkscape:window-maximized="1"
     inkscape:current-layer="svg1" />
  <path
     style="fill:#fafafa;stroke-linecap:round;stroke-linejoin:round"
     d="M 5.8378906,1 C 4.8349366,1 4,1.8349366 4,2.8378906 4,5.7679623 5.164453,8.5785155 7.2363281,10.650391 l 1.21875,1.21875 C 8.575963,11.989956 8.610252,12.032603 8.5859375,12 c 0.024314,-0.0326 -0.00997,0.01004 -0.1308594,0.130859 l -1.21875,1.21875 C 5.1644483,15.421478 4,18.231984 4,21.162109 4,22.165063 4.8349942,23 5.8378906,23 H 18.162109 C 19.165006,23 20,22.165006 20,21.162109 c 0,-2.930135 -1.164465,-5.740636 -3.236328,-7.8125 l -1.21875,-1.21875 c -0.121,-0.121 -0.15561,-0.164069 -0.130859,-0.130859 -0.02475,0.03321 0.0099,-0.0099 0.130859,-0.130859 l 1.21875,-1.21875 C 18.835531,8.5785207 20,5.7679723 20,2.8378906 20,1.8349942 19.165063,1 18.162109,1 Z M 6.0332031,3 H 17.966797 c -0.04351,2.3393354 -0.959619,4.5787509 -2.617188,6.2363281 l -1.21875,1.2187499 c -0.121,0.121 -0.208962,0.2002 -0.320312,0.34961 -0.526238,0.705763 -0.526238,1.684861 0,2.390625 0.11135,0.149409 0.199312,0.228609 0.320312,0.349609 l 1.21875,1.21875 C 17.007173,16.421236 17.923286,18.660602 17.966797,21 H 6.0332031 c 0.04351,-2.339407 0.9596199,-4.578769 2.6171875,-6.236328 l 1.21875,-1.21875 c 0.1212551,-0.121185 0.2093384,-0.200807 0.3203124,-0.349609 0.526199,-0.705766 0.526199,-1.68486 0,-2.390625 -0.110974,-0.148803 -0.1990573,-0.228425 -0.3203124,-0.34961 L 8.6503906,9.2363281 C 6.9928184,7.5787559 6.0767126,5.3393444 6.0332031,3 Z"
     id="path1" />
</svg>
