<?xml version="1.0" encoding="UTF-8" standalone="no"?>
<svg
   width="24"
   height="24"
   viewBox="0 0 24 24"
   fill="none"
   version="1.1"
   id="svg1"
   sodipodi:docname="message-chat-circle.svg"
   inkscape:version="1.4 (86a8ad7, 2024-10-11)"
   xmlns:inkscape="http://www.inkscape.org/namespaces/inkscape"
   xmlns:sodipodi="http://sodipodi.sourceforge.net/DTD/sodipodi-0.dtd"
   xmlns="http://www.w3.org/2000/svg"
   xmlns:svg="http://www.w3.org/2000/svg">
  <defs
     id="defs1" />
  <sodipodi:namedview
     id="namedview1"
     pagecolor="#ffffff"
     bordercolor="#000000"
     borderopacity="0.25"
     inkscape:showpageshadow="2"
     inkscape:pageopacity="0.0"
     inkscape:pagecheckerboard="0"
     inkscape:deskcolor="#d1d1d1"
     showgrid="false"
     inkscape:zoom="34.708333"
     inkscape:cx="12.014406"
     inkscape:cy="12"
     inkscape:window-width="1841"
     inkscape:window-height="1051"
     inkscape:window-x="-9"
     inkscape:window-y="-9"
     inkscape:window-maximized="1"
     inkscape:current-layer="svg1" />
  <path
     style="fill:#fafafa;stroke-linecap:round;stroke-linejoin:round"
     d="M 14.052734,1 C 9.0684774,1 5,5.037724 5,10 c 0,0.199541 0.032012,0.39134 0.044922,0.587891 -2.22149,1.020797 -3.78125,3.285562 -3.78125,5.912109 0,0.716638 0.1146161,1.409004 0.3261718,2.056641 0.07578,0.232 0.1005234,0.351911 0.087891,0.271484 0.00246,-0.04254 -0.0029,0.01234 -0.042969,0.193359 l -0.6113281,2.761719 a 1.0001,1.0001 0 0 0 1.1113281,1.207031 l 2.9960938,-0.408203 c 0.163671,-0.02233 0.2124176,-0.02317 0.1738281,-0.02344 -0.074124,-0.01472 0.03617,0.01249 0.2441406,0.08594 C 6.2017416,22.874942 6.9039892,23 7.6308594,23 10.290924,23 12.558511,21.317979 13.511719,18.958984 13.692856,18.969745 13.869074,19 14.052734,19 c 1.120491,0 2.198017,-0.20403 3.191407,-0.576172 0.18939,-0.07093 0.269991,-0.0921 0.21289,-0.08008 v 0.002 c -0.03631,2.4e-4 0.0074,9.82e-4 0.173828,0.02539 l 3.185547,0.466797 c 0.352822,0.05169 0.664485,0.181107 1.199219,-0.04883 0.341173,-0.146773 0.61689,-0.415955 0.771484,-0.753906 0.242132,-0.529071 0.119772,-0.845219 0.07617,-1.199219 l -0.402344,-3.269531 c -0.01987,-0.160873 -0.01874,-0.204116 -0.01953,-0.169922 -0.01257,0.05681 0.0082,-0.02178 0.07813,-0.205078 0.37862,-0.992454 0.585938,-2.070473 0.585938,-3.191406 0,-4.9622775 -4.068522,-9 -9.052735,-9 z m 0,2 c 3.910387,0 7.052735,3.1257175 7.052735,7 0,0.875267 -0.161498,1.708969 -0.455078,2.478516 -0.06969,0.182702 -0.117938,0.286718 -0.16211,0.486328 -0.0253,0.114112 -0.04411,0.266948 -0.04687,0.384765 -0.0042,0.180395 0.01523,0.299611 0.03516,0.460938 l 0.371094,3.007812 -2.925781,-0.427734 c -0.166343,-0.02439 -0.288649,-0.04616 -0.476563,-0.04492 -0.121389,6.48e-4 -0.281284,0.01603 -0.40039,0.04102 -0.205301,0.04322 -0.312744,0.0932 -0.501953,0.164062 C 15.769758,16.84044 14.931844,17 14.052734,17 c -0.0512,0 -0.09948,-0.01065 -0.15039,-0.01172 C 13.915483,16.818725 14,16.672779 14,16.5 14,12.9349 11.149454,10 7.6308594,10 7.4104153,10 7.2244234,10.106433 7.0097656,10.128906 7.0089587,10.085233 7,10.043893 7,10 7,6.125716 10.142291,3 14.052734,3 Z M 7.6308594,12 C 10.042105,12 12,13.9899 12,16.5 12,19.0101 10.042105,21 7.6308594,21 7.1327895,21 6.6585703,20.914402 6.2148437,20.757812 6.0065947,20.684263 5.9094165,20.638224 5.6953125,20.595703 5.5887119,20.574441 5.4275244,20.55932 5.3183594,20.558594 c -0.1813295,-0.0013 -0.2957155,0.01874 -0.4589844,0.04102 l -1.5722656,0.214844 0.3007812,-1.359375 c 0.040066,-0.180983 0.074219,-0.307028 0.085937,-0.509766 0.0071,-0.122882 -4.613e-4,-0.304133 -0.019531,-0.425781 C 3.6167841,18.280704 3.5660144,18.167547 3.4902344,17.935547 3.3432501,17.485583 3.2636719,17.004562 3.2636719,16.5 c 0,-2.510096 1.9559655,-4.5 4.3671875,-4.5 z"
     id="path1" />
</svg>
