<svg aria-hidden="true" style="position: absolute; width: 0; height: 0; overflow: hidden;" version="1.1" xmlns="http://www.w3.org/2000/svg" xmlns:xlink="http://www.w3.org/1999/xlink">
<defs>
<symbol id="icon-arrow-down" viewBox="0 0 32 32">
<path d="M9.131 10.869l-2.263 2.263 9.131 9.131 9.131-9.131-2.262-2.263-6.869 6.869z"></path>
</symbol>
<symbol id="icon-arrow-left" viewBox="0 0 32 32">
<path d="M5.334 15c-0.552 0-1 0.448-1 1v0c0 0.552 0.448 1 1 1v0h21.332c0.552 0 1-0.448 1-1v0c0-0.552-0.448-1-1-1v0z"></path>
<path d="M13.334 7c-0.276 0-0.526 0.112-0.707 0.293l-8 8c-0.181 0.181-0.293 0.431-0.293 0.707s0.112 0.526 0.293 0.707l8 8c0.181 0.181 0.431 0.293 0.707 0.293s0.526-0.112 0.707-0.293v0c0.181-0.181 0.293-0.431 0.293-0.707s-0.112-0.526-0.293-0.707l-7.293-7.293 7.293-7.293c0.181-0.181 0.293-0.431 0.293-0.707s-0.112-0.526-0.293-0.707v0c-0.181-0.181-0.431-0.293-0.707-0.293v0z"></path>
</symbol>
<symbol id="icon-arrow-right" viewBox="0 0 32 32">
<path d="M5.334 15c-0.552 0-1 0.448-1 1v0c0 0.552 0.448 1 1 1v0h21.332c0.552 0 1-0.448 1-1v0c0-0.552-0.448-1-1-1v0z"></path>
<path d="M17.959 7.293c-0.181 0.181-0.293 0.431-0.293 0.707s0.112 0.526 0.293 0.707l7.293 7.293-7.293 7.293c-0.181 0.181-0.293 0.431-0.293 0.707s0.112 0.526 0.293 0.707v0c0.181 0.181 0.431 0.293 0.707 0.293s0.526-0.112 0.707-0.293l8-8c0.181-0.181 0.293-0.431 0.293-0.707s-0.112-0.526-0.293-0.707l-8-8c-0.181-0.181-0.431-0.293-0.707-0.293s-0.526 0.112-0.707 0.293v0z"></path>
</symbol>
<symbol id="icon-arrow-up" viewBox="0 0 32 32">
<path d="M16 9.738l-9.131 9.131 2.263 2.262 6.869-6.869 6.869 6.869 2.262-2.262z"></path>
</symbol>
<symbol id="icon-brush" viewBox="0 0 32 32">
<path d="M12 13.63c-0.368 0-0.701 0.149-0.943 0.391v0c-0.241 0.241-0.39 0.575-0.39 0.943s0.149 0.701 0.39 0.943l5.036 5.036c0.241 0.241 0.575 0.39 0.943 0.39s0.701-0.149 0.943-0.39v0c0.241-0.241 0.39-0.575 0.39-0.943s-0.149-0.701-0.39-0.943l-5.036-5.036c-0.241-0.241-0.575-0.391-0.943-0.391v0z"></path>
<path d="M7.333 18.674c-1.538 0-3.076 0.584-4.242 1.75-1.368 1.368-1.303 3.198-1.245 4.661s0.099 2.728-0.367 3.638c-0.093 0.177-0.147 0.387-0.147 0.609 0 0.736 0.597 1.333 1.333 1.333 0 0 0.001 0 0.001 0h-0c1.257 0 2.83 0.12 4.406-0.005s3.252-0.502 4.503-1.753c2.332-2.332 2.332-6.152 0-8.484-1.166-1.166-2.704-1.75-4.242-1.75zM7.333 21.326c0.85 0 1.7 0.328 2.357 0.984 1.313 1.313 1.313 3.401 0 4.714-0.572 0.572-1.546 0.879-2.831 0.982-0.765 0.061-1.642 0.018-2.495-0.003 0.165-1.089 0.181-2.141 0.146-3.021-0.056-1.398 0.012-2.218 0.466-2.672 0.656-0.656 1.506-0.984 2.357-0.984z"></path>
<path d="M26.003 1.815c-1.070-0.021-2.147 0.352-2.984 1.128l-13.156 12.182c-0.68 0.63-1.109 0.985-1.461 1.581-0.712 1.206-0.741 2.703-0.076 3.935 0.329 0.609 0.743 0.98 1.398 1.635s1.026 1.070 1.635 1.398c1.232 0.665 2.729 0.637 3.935-0.076 0.596-0.352 0.951-0.781 1.581-1.461l12.182-13.156c1.55-1.674 1.499-4.311-0.115-5.924-0.807-0.807-1.87-1.222-2.94-1.242zM25.953 4.466c0.399 0.008 0.794 0.167 1.104 0.477 0.62 0.62 0.637 1.583 0.042 2.227l-12.182 13.159c-0.63 0.68-0.904 0.93-0.979 0.974-0.404 0.239-0.899 0.249-1.313 0.026-0.077-0.042-0.36-0.282-1.016-0.938s-0.896-0.939-0.938-1.016c-0.223-0.413-0.213-0.908 0.026-1.313 0.044-0.075 0.294-0.35 0.974-0.979l13.159-12.182c0.322-0.298 0.724-0.443 1.122-0.435z"></path>
</symbol>
<symbol id="icon-burger-menu" viewBox="0 0 32 32">
<path d="M4 10.19c-0.631 0-1.143 0.512-1.143 1.143v0c0 0.631 0.512 1.143 1.143 1.143h24c0.631 0 1.143-0.512 1.143-1.143v0c0-0.631-0.512-1.143-1.143-1.143v0zM4 19.525c-0.631 0-1.143 0.512-1.143 1.143v0c0 0.631 0.512 1.143 1.143 1.143v0h24c0.631 0 1.143-0.512 1.143-1.143v0c0-0.631-0.512-1.143-1.143-1.143v0z"></path>
</symbol>
<symbol id="icon-close-x" viewBox="0 0 32 32">
<path d="M23.192 7.192l-16 16c-0.207 0.207-0.335 0.492-0.335 0.808s0.128 0.601 0.335 0.808v0c0.207 0.207 0.492 0.335 0.808 0.335s0.601-0.128 0.808-0.335l16-16c0.207-0.207 0.335-0.492 0.335-0.808s-0.128-0.601-0.335-0.808v0c-0.207-0.207-0.492-0.335-0.808-0.335s-0.601 0.128-0.808 0.335v0z"></path>
<path stroke-width="2.2857" stroke-miterlimit="4" stroke-linecap="round" stroke-linejoin="round" d="M8 8l16 16"></path>
</symbol>
<symbol id="icon-hourglass" viewBox="0 0 32 32">
<path d="M7.784 1.333c-1.337 0-2.451 1.113-2.451 2.451 0 3.907 1.553 7.654 4.315 10.417l1.625 1.625c0.161 0.161 0.207 0.218 0.174 0.174 0.032-0.043-0.013 0.013-0.174 0.174l-1.625 1.625c-2.763 2.762-4.315 6.51-4.315 10.417 0 1.337 1.113 2.451 2.451 2.451h16.432c1.337 0 2.451-1.113 2.451-2.451 0-3.907-1.553-7.654-4.315-10.417l-1.625-1.625c-0.161-0.161-0.207-0.219-0.174-0.174-0.033 0.044 0.013-0.013 0.174-0.174l1.625-1.625c2.762-2.762 4.315-6.51 4.315-10.417 0-1.337-1.113-2.451-2.451-2.451zM8.044 4h15.911c-0.058 3.119-1.279 6.105-3.49 8.315l-1.625 1.625c-0.161 0.161-0.279 0.267-0.427 0.466-0.702 0.941-0.702 2.246 0 3.188 0.148 0.199 0.266 0.305 0.427 0.466l1.625 1.625c2.21 2.21 3.432 5.196 3.49 8.315h-15.911c0.058-3.119 1.28-6.105 3.49-8.315l1.625-1.625c0.162-0.162 0.279-0.268 0.427-0.466 0.702-0.941 0.702-2.246 0-3.188-0.148-0.198-0.265-0.305-0.427-0.466l-1.625-1.625c-2.21-2.21-3.432-5.196-3.49-8.315z"></path>
</symbol>
<symbol id="icon-logo" viewBox="0 0 141 32">
<path d="M133.416 15.158l0.234-4.936-4.313 2.685-1.337-2.219 4.58-2.251-4.58-2.251 1.337-2.251 4.313 2.685-0.234-4.936h2.641l-0.234 4.936 4.313-2.685 1.337 2.251-4.58 2.251 4.58 2.251-1.337 2.219-4.313-2.685 0.234 4.936h-2.641z"></path>
<path d="M112.987 14.412v10.851h-3.513v-18.297h3.415v3.011h0.244c0.412-0.993 1.057-1.778 1.936-2.357 0.878-0.589 2.006-0.884 3.383-0.884 1.236 0 2.315 0.262 3.236 0.786 0.933 0.513 1.654 1.282 2.163 2.308 0.52 1.026 0.781 2.297 0.781 3.813v11.62h-3.513v-11.194c0-1.32-0.347-2.357-1.041-3.11-0.694-0.764-1.637-1.146-2.83-1.146-0.813 0-1.545 0.185-2.196 0.556-0.64 0.36-1.144 0.878-1.512 1.555s-0.553 1.506-0.553 2.488z"></path>
<path d="M99.36 25.263c-1.69 0-3.17-0.385-4.441-1.155-1.26-0.77-2.239-1.85-2.939-3.24-0.689-1.39-1.033-3.005-1.033-4.844 0-1.861 0.344-3.486 1.033-4.876 0.7-1.401 1.679-2.486 2.939-3.256 1.27-0.77 2.75-1.155 4.441-1.155 1.701 0 3.181 0.385 4.441 1.155s2.239 1.855 2.939 3.256c0.7 1.39 1.050 3.016 1.050 4.876 0 1.839-0.35 3.454-1.050 4.844s-1.679 2.47-2.939 3.24c-1.259 0.77-2.74 1.155-4.441 1.155zM99.36 22.328c1.109 0 2.024-0.289 2.745-0.866s1.254-1.342 1.599-2.294c0.355-0.963 0.533-2.010 0.533-3.144 0-1.155-0.178-2.214-0.533-3.176-0.344-0.962-0.877-1.732-1.599-2.31s-1.636-0.866-2.745-0.866c-1.098 0-2.008 0.289-2.729 0.866-0.711 0.577-1.243 1.347-1.599 2.31s-0.533 2.021-0.533 3.176c0 1.134 0.178 2.181 0.533 3.144 0.355 0.952 0.888 1.716 1.599 2.294 0.721 0.577 1.631 0.866 2.729 0.866z"></path>
<path d="M88.896 11.356l-3.289 0.545c-0.212-0.599-0.606-1.15-1.185-1.652-0.568-0.503-1.419-0.754-2.554-0.754-1.024 0-1.881 0.225-2.571 0.674-0.679 0.438-1.018 1-1.018 1.684 0 0.599 0.228 1.085 0.684 1.46 0.467 0.374 1.207 0.674 2.22 0.898l2.988 0.642c1.703 0.374 2.977 0.962 3.823 1.764s1.269 1.829 1.269 3.080c0 1.080-0.323 2.042-0.968 2.887-0.645 0.834-1.541 1.492-2.688 1.973-1.146 0.47-2.471 0.706-3.973 0.706-2.092 0-3.795-0.433-5.108-1.299s-2.12-2.085-2.421-3.657l3.489-0.513c0.222 0.877 0.673 1.54 1.352 1.989 0.69 0.449 1.58 0.674 2.671 0.674 1.18 0 2.126-0.241 2.838-0.722 0.723-0.481 1.085-1.064 1.085-1.748 0-1.133-0.879-1.898-2.637-2.294l-3.155-0.674c-1.747-0.385-3.038-0.989-3.873-1.813-0.824-0.834-1.235-1.882-1.235-3.144 0-1.059 0.306-1.989 0.918-2.791 0.623-0.802 1.475-1.422 2.554-1.861 1.091-0.449 2.331-0.674 3.723-0.674 2.026 0 3.611 0.422 4.758 1.267 1.157 0.845 1.925 1.962 2.304 3.352z"></path>
<path d="M64 25.263v-18.265h3.538v2.924h0.203c0.35-0.98 0.959-1.754 1.828-2.32 0.88-0.577 1.873-0.866 2.979-0.866 0.226 0 0.491 0.011 0.795 0.033 0.316 0.011 0.57 0.027 0.762 0.049v3.398c-0.147-0.044-0.412-0.087-0.796-0.131-0.372-0.044-0.75-0.065-1.134-0.065-0.869 0-1.648 0.18-2.336 0.539-0.677 0.349-1.213 0.833-1.608 1.454-0.384 0.61-0.576 1.318-0.576 2.124v11.126h-3.656z"></path>
<path d="M54.344 25.263c-1.82 0-3.395-0.38-4.726-1.139s-2.358-1.829-3.079-3.208c-0.71-1.39-1.065-3.010-1.065-4.86 0-1.839 0.349-3.459 1.048-4.86 0.71-1.401 1.703-2.492 2.979-3.272 1.287-0.791 2.796-1.187 4.527-1.187 1.054 0 2.075 0.166 3.062 0.497s1.875 0.855 2.663 1.572c0.788 0.716 1.409 1.647 1.864 2.791 0.466 1.144 0.699 2.524 0.699 4.138v1.251h-14.795v-2.615h12.931l-1.681 0.866c0-1.101-0.178-2.075-0.533-2.919s-0.888-1.502-1.598-1.973c-0.699-0.481-1.57-0.722-2.613-0.722s-1.936 0.241-2.68 0.722c-0.732 0.481-1.292 1.117-1.681 1.909s-0.582 1.657-0.582 2.598v1.78c0 1.23 0.222 2.272 0.666 3.128s1.060 1.508 1.847 1.957c0.799 0.449 1.725 0.674 2.779 0.674 0.688 0 1.309-0.096 1.864-0.289 0.566-0.192 1.054-0.481 1.464-0.866s0.721-0.861 0.932-1.428l3.428 0.626c-0.277 0.963-0.766 1.807-1.465 2.534s-1.581 1.294-2.646 1.7c-1.054 0.396-2.258 0.594-3.611 0.594z"></path>
<path d="M46.213 7.158v2.834h-10.844v-2.834h10.844zM38.324 25.263v-20.211c0-1.123 0.264-2.057 0.791-2.802 0.538-0.756 1.237-1.317 2.097-1.684 0.871-0.378 1.804-0.567 2.801-0.567 0.767 0 1.421 0.059 1.959 0.178s0.934 0.221 1.186 0.308l-0.894 2.85c-0.172-0.054-0.395-0.113-0.67-0.178-0.263-0.065-0.596-0.097-0.997-0.097-0.905 0-1.558 0.216-1.959 0.648-0.401 0.421-0.601 1.036-0.601 1.846v19.709h-3.712z"></path>
<path d="M36.107 7.158v2.834h-10.844v-2.834h10.844zM28.219 25.263v-20.211c0-1.123 0.264-2.057 0.791-2.802 0.538-0.756 1.237-1.317 2.097-1.684 0.871-0.378 1.804-0.567 2.801-0.567 0.767 0 1.421 0.059 1.959 0.178s0.934 0.221 1.186 0.308l-0.894 2.85c-0.172-0.054-0.395-0.113-0.67-0.178-0.263-0.065-0.596-0.097-0.997-0.097-0.905 0-1.558 0.216-1.959 0.648-0.401 0.421-0.601 1.036-0.601 1.846v19.709h-3.712z"></path>
<path d="M17.291 25.263c-1.82 0-3.395-0.38-4.726-1.139s-2.358-1.829-3.079-3.208c-0.71-1.39-1.065-3.010-1.065-4.86 0-1.839 0.35-3.459 1.048-4.86 0.71-1.401 1.703-2.492 2.979-3.272 1.287-0.791 2.796-1.187 4.527-1.187 1.054 0 2.075 0.166 3.062 0.497s1.875 0.855 2.663 1.572c0.788 0.716 1.409 1.647 1.864 2.791 0.466 1.144 0.699 2.524 0.699 4.138v1.251h-14.795v-2.615h12.931l-1.681 0.866c0-1.101-0.178-2.075-0.533-2.919s-0.888-1.502-1.598-1.973c-0.699-0.481-1.57-0.722-2.613-0.722s-1.936 0.241-2.68 0.722c-0.732 0.481-1.293 1.117-1.681 1.909s-0.582 1.657-0.582 2.598v1.78c0 1.23 0.222 2.272 0.666 3.128s1.060 1.508 1.847 1.957c0.799 0.449 1.725 0.674 2.779 0.674 0.688 0 1.309-0.096 1.864-0.289 0.566-0.192 1.054-0.481 1.464-0.866s0.721-0.861 0.932-1.428l3.428 0.626c-0.277 0.963-0.766 1.807-1.465 2.534s-1.581 1.294-2.646 1.7c-1.054 0.396-2.258 0.594-3.611 0.594z"></path>
<path d="M2.878 7.012h3.416v19.376c0.011 1.215-0.2 2.24-0.633 3.075s-1.065 1.464-1.898 1.887c-0.833 0.434-1.856 0.651-3.068 0.651h-0.696v-3.042h0.553c0.822 0 1.413-0.222 1.771-0.667s0.543-1.085 0.554-1.92v-19.36zM4.57 4.214c-0.601 0-1.112-0.206-1.534-0.618s-0.633-0.906-0.633-1.48c0-0.586 0.211-1.085 0.633-1.497s0.933-0.618 1.534-0.618c0.59 0 1.096 0.206 1.518 0.618 0.432 0.412 0.648 0.911 0.648 1.497 0 0.575-0.216 1.068-0.648 1.48-0.422 0.412-0.928 0.618-1.518 0.618z"></path>
</symbol>
<symbol id="icon-message" viewBox="0 0 32 32">
<path d="M18.737 1.333c-6.646 0-12.070 5.384-12.070 12 0 0.266 0.043 0.522 0.060 0.784-2.962 1.361-5.042 4.381-5.042 7.883 0 0.956 0.153 1.879 0.435 2.742 0.101 0.309 0.134 0.469 0.117 0.362 0.003-0.057-0.004 0.016-0.057 0.258l-0.815 3.682c-0.020 0.087-0.032 0.186-0.032 0.288 0 0.736 0.597 1.333 1.333 1.333 0.063 0 0.126-0.004 0.187-0.013l-0.007 0.001 3.995-0.544c0.218-0.030 0.283-0.031 0.232-0.031-0.099-0.020 0.048 0.017 0.326 0.115 0.871 0.307 1.807 0.474 2.776 0.474 3.547 0 6.57-2.243 7.841-5.388 0.242 0.014 0.476 0.055 0.721 0.055 1.494 0 2.931-0.272 4.255-0.768 0.253-0.095 0.36-0.123 0.284-0.107v0.003c-0.048 0 0.010 0.001 0.232 0.034l4.247 0.622c0.47 0.069 0.886 0.241 1.599-0.065 0.455-0.196 0.823-0.555 1.029-1.005 0.323-0.705 0.16-1.127 0.102-1.599l-0.536-4.359c-0.026-0.215-0.025-0.272-0.026-0.227-0.017 0.076 0.011-0.029 0.104-0.273 0.505-1.323 0.781-2.761 0.781-4.255 0-6.616-5.425-12-12.070-12zM18.737 4c5.214 0 9.404 4.168 9.404 9.333 0 1.167-0.215 2.279-0.607 3.305-0.093 0.244-0.157 0.382-0.216 0.648-0.034 0.152-0.059 0.356-0.063 0.513-0.006 0.241 0.020 0.399 0.047 0.615l0.495 4.010-3.901-0.57c-0.222-0.033-0.385-0.062-0.635-0.060-0.162 0.001-0.375 0.021-0.534 0.055-0.274 0.058-0.417 0.124-0.669 0.219-1.031 0.386-2.148 0.599-3.32 0.599-0.068 0-0.133-0.014-0.201-0.016 0.018-0.226 0.13-0.421 0.13-0.651 0-4.753-3.801-8.667-8.492-8.667-0.294 0-0.542 0.142-0.828 0.172-0.001-0.058-0.013-0.113-0.013-0.172 0-5.166 4.19-9.333 9.404-9.333zM10.174 16c3.215 0 5.826 2.653 5.826 6s-2.611 6-5.826 6c-0.664 0-1.296-0.114-1.888-0.323-0.278-0.098-0.407-0.159-0.693-0.216-0.142-0.028-0.357-0.049-0.503-0.049-0.242-0.002-0.394 0.025-0.612 0.055l-2.096 0.286 0.401-1.813c0.053-0.241 0.099-0.409 0.115-0.68 0.009-0.164-0.001-0.405-0.026-0.568-0.050-0.318-0.118-0.469-0.219-0.779-0.196-0.6-0.302-1.241-0.302-1.914 0-3.347 2.608-6 5.823-6z"></path>
</symbol>
<symbol id="icon-user" viewBox="0 0 32 32">
<path d="M12.667 19.333c-1.861 0-2.888-0.031-3.935 0.286-2.129 0.646-3.799 2.316-4.445 4.445-0.318 1.047-0.286 2.074-0.286 3.935 0 0.736 0.597 1.333 1.333 1.333v0c0.736 0 1.333-0.597 1.333-1.333v0c0-1.861 0.030-2.695 0.172-3.161 0.388-1.28 1.387-2.278 2.667-2.667 0.467-0.142 1.301-0.172 3.161-0.172h6.667c1.861 0 2.695 0.030 3.161 0.172 1.28 0.388 2.278 1.387 2.667 2.667 0.142 0.467 0.172 1.301 0.172 3.161 0 0.736 0.597 1.333 1.333 1.333v0c0.736 0 1.333-0.597 1.333-1.333v0c0-1.861 0.031-2.888-0.286-3.935-0.646-2.129-2.316-3.799-4.445-4.445-1.047-0.318-2.074-0.286-3.935-0.286z"></path>
<path d="M16 2.667c-4.034 0-7.333 3.299-7.333 7.333s3.299 7.333 7.333 7.333c4.034 0 7.333-3.299 7.333-7.333s-3.299-7.333-7.333-7.333zM16 5.333c2.593 0 4.667 2.074 4.667 4.667s-2.073 4.667-4.667 4.667c-2.593 0-4.667-2.074-4.667-4.667s2.074-4.667 4.667-4.667z"></path>
</symbol>
</defs>
</svg>
