<?xml version="1.0" encoding="UTF-8" standalone="no"?>
<svg
   width="24"
   height="24"
   viewBox="0 0 24 24"
   fill="none"
   version="1.1"
   id="svg2"
   sodipodi:docname="user.svg"
   inkscape:version="1.4 (86a8ad7, 2024-10-11)"
   xmlns:inkscape="http://www.inkscape.org/namespaces/inkscape"
   xmlns:sodipodi="http://sodipodi.sourceforge.net/DTD/sodipodi-0.dtd"
   xmlns="http://www.w3.org/2000/svg"
   xmlns:svg="http://www.w3.org/2000/svg">
  <defs
     id="defs2" />
  <sodipodi:namedview
     id="namedview2"
     pagecolor="#ffffff"
     bordercolor="#000000"
     borderopacity="0.25"
     inkscape:showpageshadow="2"
     inkscape:pageopacity="0.0"
     inkscape:pagecheckerboard="0"
     inkscape:deskcolor="#d1d1d1"
     showgrid="false"
     inkscape:zoom="34.708333"
     inkscape:cx="12.014406"
     inkscape:cy="12"
     inkscape:window-width="1841"
     inkscape:window-height="1051"
     inkscape:window-x="-9"
     inkscape:window-y="-9"
     inkscape:window-maximized="1"
     inkscape:current-layer="svg2" />
  <path
     style="fill:#fafafa;stroke-linecap:round;stroke-linejoin:round"
     d="m 9.5,14.5 c -1.39556,0 -2.1656262,-0.0234 -2.9511719,0.214844 C 4.951892,15.199267 3.699252,16.451955 3.2148438,18.048828 2.9765475,18.834387 3,19.6044 3,21 a 1,1 0 0 0 1,1 1,1 0 0 0 1,-1 c 0,-1.3956 0.022723,-2.021052 0.1289062,-2.371094 0.2911918,-0.959926 1.0401162,-1.708823 2,-2 C 7.4789406,16.522747 8.10444,16.5 9.5,16.5 h 5 c 1.3956,0 2.021015,0.02274 2.371094,0.128906 0.959885,0.29118 1.70882,1.040115 2,2 C 18.977264,18.978985 19,19.6044 19,21 a 1,1 0 0 0 1,1 1,1 0 0 0 1,-1 c 0,-1.3956 0.02339,-2.165651 -0.214844,-2.951172 -0.48442,-1.596914 -1.73707,-2.849564 -3.333984,-3.333984 C 16.665651,14.476614 15.8956,14.5 14.5,14.5 Z"
     id="path1" />
  <path
     style="fill:#fafafa;stroke-linecap:round;stroke-linejoin:round"
     d="M 12,2 C 8.9742792,2 6.5,4.4742792 6.5,7.5 6.5,10.525721 8.9742792,13 12,13 15.025736,13 17.5,10.525715 17.5,7.5 17.5,4.4742846 15.025736,2 12,2 Z m 0,2 c 1.944864,0 3.5,1.5551554 3.5,3.5 C 15.5,9.4448446 13.944864,11 12,11 10.055161,11 8.5,9.4448392 8.5,7.5 8.5,5.5551608 10.055161,4 12,4 Z"
     id="path2" />
</svg>
